# xmcd
#
# Track frame offsets:
#	150
#	12204
#	22783
#	32530
#	46204
#	55759
#	72590
#	83926
#	94941
#	105466
#	118961
#	128611
#	142989
#	162281
#
# Disc length: 2285 seconds
#
# Revision: 0
# Processed by: cddbd v1.4PL0 Copyright (c) Steve Scherf et al.
# Submitted via: EasyCDDAExtractor 4.6.0.1
#
DISCID=ae08eb0e
DTITLE=Marti Brom and Her Barnshakers - Snake Ranch
DYEAR=2000
DGENRE=Rockabilly
TTITLE0=Blue Tattoo
TTITLE1=They Call Me Crazy
TTITLE2=Kiss The Baby Goodnight
TTITLE3=No Good Lover
TTITLE4=This Is Love, Not Liquor
TTITLE5=Lovesick Clown
TTITLE6=Black Cadillac
TTITLE7=Snake Ranch
TTITLE8=Eat My Words
TTITLE9=You Put It There
TTITLE10=Jeopardy
TTITLE11=Love Hound
TTITLE12=Cry To Me Baby
TTITLE13=Now Stop
EXTD=
EXTT0=
EXTT1=
EXTT2=
EXTT3=
EXTT4=
EXTT5=
EXTT6=
EXTT7=
EXTT8=
EXTT9=
EXTT10=
EXTT11=
EXTT12=
EXTT13=
PLAYORDER=
